<?xml version="1.0" standalone="no"?>
<!DOCTYPE svg PUBLIC "-//W3C//DTD SVG 20010904//EN"
 "http://www.w3.org/TR/2001/REC-SVG-20010904/DTD/svg10.dtd">
<svg version="1.0" xmlns="http://www.w3.org/2000/svg"
 width="1319.000000pt" height="288.000000pt" viewBox="0 0 1319.000000 288.000000"
 preserveAspectRatio="xMidYMid meet">

<g transform="translate(0.000000,288.000000) scale(0.100000,-0.100000)"
fill="#000000" stroke="none">
<path d="M4680 2561 c0 -4 -108 -502 -240 -1106 -132 -604 -240 -1106 -240
-1115 0 -13 13 -20 50 -27 28 -6 50 -9 50 -7 0 1 108 495 239 1096 131 601
240 1104 242 1118 4 22 -1 25 -48 36 -29 7 -53 9 -53 5z"/>
<path d="M1905 2548 c-3 -7 -70 -287 -150 -623 -81 -339 -156 -630 -168 -654
-43 -87 -36 -86 -390 -89 -172 -2 -322 0 -334 3 -31 7 -53 33 -53 61 0 38 99
443 116 476 28 54 55 58 363 58 l280 0 10 38 c13 46 71 292 71 298 0 9 -1059
4 -1110 -6 -131 -25 -244 -110 -296 -224 -25 -55 -164 -612 -185 -743 -21
-131 11 -221 94 -266 l42 -22 850 0 850 0 58 22 c109 42 180 109 226 213 11
25 94 358 185 740 92 382 169 703 172 713 5 16 -14 17 -311 17 -243 0 -317 -3
-320 -12z"/>
<path d="M2453 1570 c-73 -305 -143 -575 -157 -605 -53 -117 -169 -202 -306
-224 -36 -6 -168 -11 -295 -11 l-230 0 -48 -203 c-26 -111 -47 -205 -47 -209
0 -5 213 -8 473 -8 439 0 479 1 551 20 219 56 389 219 475 456 16 43 95 354
175 689 81 336 149 618 152 628 5 16 -14 17 -303 17 l-308 0 -132 -550z"/>
<path d="M3201 1507 c-79 -336 -146 -622 -149 -634 l-4 -23 305 0 c282 0 306
1 311 18 3 9 69 287 146 617 77 330 143 608 146 618 5 16 -14 17 -303 17
l-308 0 -144 -613z"/>
<path d="M10392 2105 c-202 -44 -385 -211 -447 -409 -109 -342 60 -697 384
-806 123 -41 281 -45 414 -9 88 23 180 81 262 163 90 91 134 168 160 281 21
88 21 251 0 330 -85 330 -422 526 -773 450z m331 -184 c70 -27 159 -107 204
-182 92 -153 84 -375 -18 -528 -70 -105 -166 -164 -298 -183 -247 -36 -463
128 -502 381 -35 232 87 449 293 523 75 26 239 21 321 -11z"/>
<path d="M11647 2110 c-161 -41 -256 -169 -245 -329 12 -158 81 -234 317 -348
86 -41 171 -86 190 -100 97 -74 91 -231 -11 -285 -36 -19 -58 -23 -133 -23
-127 0 -188 31 -265 134 l-26 33 -76 -42 -77 -43 17 -31 c29 -53 116 -133 178
-164 80 -40 148 -54 256 -54 174 1 295 63 357 183 30 60 33 74 33 150 0 116
-27 186 -99 256 -42 42 -88 70 -218 133 -91 44 -180 94 -199 110 -49 43 -69
92 -61 146 9 63 44 100 109 115 83 18 147 -1 208 -62 l49 -49 67 42 c37 23 69
43 71 45 2 1 -9 22 -25 45 -34 48 -96 95 -162 122 -54 21 -197 30 -255 16z"/>
<path d="M12614 2109 c-60 -14 -143 -68 -181 -117 -45 -60 -67 -139 -60 -219
15 -156 81 -226 322 -343 176 -85 227 -122 246 -177 16 -48 7 -124 -19 -160
-46 -65 -176 -91 -287 -58 -50 14 -70 28 -127 86 l-68 69 -74 -41 -74 -42 21
-36 c32 -54 108 -126 164 -154 168 -86 411 -78 535 16 121 93 160 270 92 418
-42 89 -107 141 -291 231 -101 48 -178 93 -202 116 -47 44 -64 99 -51 157 28
123 221 141 319 29 l40 -46 70 44 c39 23 71 46 71 49 0 3 -13 25 -30 47 -80
111 -258 166 -416 131z"/>
<path d="M5020 1490 l0 -620 95 0 95 0 0 260 0 260 300 0 300 0 0 -260 0 -260
95 0 95 0 0 620 0 620 -95 0 -95 0 0 -280 0 -280 -300 0 -300 0 0 280 0 280
-95 0 -95 0 0 -620z"/>
<path d="M6300 1490 l0 -620 405 0 405 0 0 80 0 80 -307 2 -308 3 -3 188 -2
187 265 0 265 0 0 80 0 80 -265 0 -265 0 0 185 0 185 300 0 301 0 -3 83 -3 82
-392 3 -393 2 0 -620z"/>
<path d="M7370 1490 l0 -620 380 0 380 0 0 80 0 80 -282 2 -283 3 -3 538 -2
537 -95 0 -95 0 0 -620z"/>
<path d="M8377 2103 c-4 -3 -7 -282 -7 -620 l0 -613 95 0 95 0 0 620 0 620
-88 0 c-49 0 -92 -3 -95 -7z"/>
<path d="M8870 1491 l0 -621 259 0 c142 0 282 5 311 10 121 23 212 90 259 189
35 75 37 221 5 292 -30 64 -86 115 -157 141 l-60 22 40 17 c58 24 110 83 128
142 41 138 -8 295 -113 361 -81 51 -128 58 -409 63 l-263 5 0 -621z m530 427
c61 -31 85 -76 84 -154 -1 -74 -27 -123 -82 -150 -30 -15 -66 -19 -189 -22
l-153 -4 0 176 0 176 148 0 c133 0 152 -2 192 -22z m46 -509 c64 -33 94 -88
94 -173 0 -88 -30 -143 -94 -175 -45 -23 -64 -25 -218 -29 l-168 -5 0 208 0
208 169 -5 c155 -4 173 -6 217 -29z"/>
<path d="M5030 475 l0 -155 100 0 c93 0 100 1 100 20 0 18 -7 20 -81 20 l-80
0 3 48 3 47 68 3 c49 2 67 7 67 17 0 10 -18 15 -67 17 l-68 3 -3 48 -3 47 75
0 c69 0 76 2 76 20 0 19 -7 20 -95 20 l-95 0 0 -155z"/>
<path d="M5400 478 c0 -151 1 -158 20 -158 19 0 20 7 20 108 l1 107 104 -110
105 -110 0 158 c0 150 -1 157 -20 157 -19 0 -20 -7 -20 -107 l0 -108 -105 110
-104 110 -1 -157z"/>
<path d="M5810 610 c0 -17 7 -20 45 -20 l45 0 0 -135 0 -135 25 0 25 0 0 135
0 135 45 0 c38 0 45 3 45 20 0 19 -7 20 -115 20 -108 0 -115 -1 -115 -20z"/>
<path d="M6200 475 l0 -155 100 0 c93 0 100 1 100 20 0 18 -7 20 -81 20 l-80
0 3 48 3 47 68 3 c49 2 67 7 67 17 0 10 -18 15 -67 17 l-68 3 -3 48 -3 47 75
0 c69 0 76 2 76 20 0 19 -7 20 -95 20 l-95 0 0 -155z"/>
<path d="M6570 475 l0 -155 25 0 c24 0 25 3 25 60 0 59 0 60 28 60 24 0 33 -9
63 -60 25 -45 40 -60 57 -60 28 0 28 3 -8 62 -16 26 -30 51 -30 54 0 3 11 15
25 25 53 42 37 136 -26 158 -18 6 -61 11 -95 11 l-64 0 0 -155z m154 99 c9 -8
16 -28 16 -44 0 -37 -32 -60 -82 -60 l-38 0 0 60 0 60 44 0 c27 0 51 -6 60
-16z"/>
<path d="M6960 475 c0 -148 1 -155 20 -155 18 0 20 7 20 55 l0 55 43 0 c63 0
110 27 121 71 21 85 -25 129 -136 129 l-68 0 0 -155z m145 101 c25 -18 25 -74
-1 -93 -11 -8 -36 -13 -59 -11 l-40 3 -3 58 -3 57 44 0 c24 0 52 -6 62 -14z"/>
<path d="M7340 475 c0 -148 1 -155 20 -155 18 0 20 7 20 60 0 59 0 60 29 60
24 0 34 -9 63 -57 26 -45 40 -59 61 -61 l27 -3 -35 59 -36 60 31 30 c21 21 30
40 30 62 0 69 -44 100 -145 100 l-65 0 0 -155z m141 105 c13 -7 19 -21 19 -45
0 -42 -29 -65 -82 -65 l-38 0 0 60 0 60 41 0 c22 0 49 -5 60 -10z"/>
<path d="M7730 475 c0 -148 1 -155 20 -155 19 0 20 7 20 155 0 148 -1 155 -20
155 -19 0 -20 -7 -20 -155z"/>
<path d="M7970 610 c-13 -13 -20 -33 -20 -59 0 -44 18 -64 89 -95 45 -21 62
-55 41 -81 -18 -21 -76 -19 -99 4 -13 13 -23 16 -35 9 -24 -13 -20 -26 17 -48
76 -47 172 -10 170 64 -1 46 -14 61 -77 93 -55 27 -66 38 -66 65 0 30 35 41
71 22 24 -12 34 -13 43 -4 8 9 5 16 -13 31 -31 26 -95 25 -121 -1z"/>
<path d="M8300 475 l0 -155 100 0 c93 0 100 1 100 20 0 18 -7 20 -75 20 l-75
0 0 50 0 50 65 0 c51 0 65 3 65 15 0 12 -14 15 -65 15 l-65 0 0 50 0 50 75 0
c68 0 75 2 75 20 0 19 -7 20 -100 20 l-100 0 0 -155z"/>
<path d="M8890 475 l0 -155 63 0 c120 1 187 56 187 155 0 99 -67 154 -187 155
l-63 0 0 -155z m170 90 c11 -10 25 -35 31 -55 24 -79 -31 -150 -113 -150 l-38
0 0 116 0 117 50 -5 c29 -3 59 -13 70 -23z"/>
<path d="M9310 475 l0 -155 100 0 c93 0 100 1 100 20 0 18 -7 20 -75 20 l-75
0 0 50 0 50 65 0 c51 0 65 3 65 15 0 12 -14 15 -65 15 l-65 0 0 50 0 50 75 0
c68 0 75 2 75 20 0 19 -7 20 -100 20 l-100 0 0 -155z"/>
<path d="M9790 628 c0 -3 -29 -74 -64 -157 -61 -143 -63 -151 -42 -151 15 0
25 9 33 30 11 29 13 30 78 30 65 0 67 -1 78 -30 8 -21 18 -30 34 -30 13 0 23
2 23 4 0 6 -130 299 -135 304 -3 3 -5 3 -5 0z m49 -200 c1 -15 -8 -18 -44 -18
-53 0 -54 5 -23 81 l22 53 22 -50 c13 -27 23 -57 23 -66z"/>
<path d="M10090 475 l0 -155 95 0 c88 0 95 1 95 20 0 18 -7 20 -70 20 l-70 0
0 135 0 135 -25 0 -25 0 0 -155z"/>
<path d="M10450 475 l0 -155 100 0 c93 0 100 1 100 20 0 18 -7 20 -80 20 l-80
0 0 50 0 50 65 0 c50 0 65 3 65 15 0 10 -16 15 -62 17 l-63 3 -3 48 -3 47 75
0 c69 0 76 2 76 20 0 19 -7 20 -95 20 l-95 0 0 -155z"/>
<path d="M10820 476 c0 -148 1 -156 20 -156 16 0 19 8 22 58 3 56 4 57 33 57
25 0 34 -8 63 -57 27 -45 40 -58 58 -58 28 0 26 5 -24 85 -18 28 -21 40 -12
43 55 19 69 110 24 153 -22 20 -38 24 -105 28 l-79 3 0 -156z m152 97 c21 -19
23 -52 4 -78 -10 -14 -27 -19 -62 -19 l-49 -1 -3 58 -3 57 47 0 c30 0 54 -6
66 -17z"/>
<path d="M11490 612 c-40 -21 -80 -90 -80 -137 0 -47 40 -116 80 -137 50 -27
140 -21 175 12 14 13 25 27 25 32 0 19 -30 18 -51 -1 -16 -15 -36 -21 -68 -21
-73 1 -111 43 -111 124 0 36 6 50 31 75 25 26 38 31 78 31 34 0 53 -6 70 -21
20 -19 25 -20 37 -7 13 12 11 17 -11 38 -35 33 -125 39 -175 12z"/>
<path d="M11860 475 c0 -148 1 -155 20 -155 18 0 20 7 20 65 l0 65 80 0 80 0
0 -65 c0 -58 2 -65 20 -65 19 0 20 7 20 155 0 148 -1 155 -20 155 -18 0 -20
-7 -20 -70 l0 -70 -80 0 -80 0 0 70 c0 63 -2 70 -20 70 -19 0 -20 -7 -20 -155z"/>
<path d="M12290 475 c0 -148 1 -155 20 -155 19 0 20 7 20 155 0 148 -1 155
-20 155 -19 0 -20 -7 -20 -155z"/>
<path d="M12520 475 l0 -155 95 0 c88 0 95 1 95 20 0 18 -7 20 -75 20 l-75 0
0 135 c0 128 -1 135 -20 135 -19 0 -20 -7 -20 -155z"/>
<path d="M12870 475 l0 -155 100 0 c93 0 100 1 100 20 0 18 -7 20 -75 20 l-75
0 0 50 0 50 65 0 c51 0 65 3 65 15 0 12 -14 15 -65 15 l-65 0 0 50 0 50 75 0
c68 0 75 2 75 20 0 19 -7 20 -100 20 l-100 0 0 -155z"/>
</g>
</svg>
